# xmcd
#
# Track frame offsets: 
#        150
#        15562
#        34650
#        58135
#        73082
#        90365
#        109200
#        122015
#        153365
#        168002
#        190267
#        208492
#        224282
#        248040
#        265872
#        290980
#        313615
#
# Disc length: 4423 seconds
#
# Revision: 1
# Processed by: cddbd v1.5.1PL0 Copyright (c) Steve Scherf et al.
# Submitted via: ExactAudioCopy v0.95a5
#
DISCID=f9114511
DTITLE=Toni Vescoli - Zytraffer
DYEAR=2000
DGENRE=Rock
TTITLE0=Du muesch en zieh
TTITLE1=Sie fahrt ihri Harley
TTITLE2=Sitze ime Wartsaal (Duett mit Joe Ely)
TTITLE3=Zrugg uf d' Autobahn
TTITLE4=Maggie-Farm
TTITLE5=De ewig Chaot
TTITLE6=Alte Fründ de Blues
TTITLE7=Laa mi la gah (Live)
TTITLE8=Bi mir chasch sicher sy (Live)
TTITLE9=Em Friede z' lieb (Live)
TTITLE10=Freiheits-Glogge
TTITLE11=Johnny(e) (Demo)
TTITLE12=Wie-n es Blatt im Wind
TTITLE13=De Tüüfel isch underwägs
TTITLE14=Stets in Truure
TTITLE15=Nöd brüele Bueb
TTITLE16=Chlopfe a's Himmels-Toor
EXTD=
EXTT0=
EXTT1=
EXTT2=
EXTT3=
EXTT4=
EXTT5=
EXTT6=
EXTT7=
EXTT8=
EXTT9=
EXTT10=
EXTT11=
EXTT12=
EXTT13=
EXTT14=
EXTT15=
EXTT16=
PLAYORDER=
